<svg width="100" height="45" viewBox="0 0 100 45" fill="none" xmlns="http://www.w3.org/2000/svg">
<g clip-path="url(#clip0_78_38)">
<path fill-rule="evenodd" clip-rule="evenodd" d="M27.254 3.8403C49.0779 3.8403 79.6896 6.27226 94.1445 13.5689C95.5619 14.2641 96.5538 14.7849 96.5538 16.0009C96.5538 17.7377 93.578 18.7801 90.8854 19.8224C80.1151 23.9927 60.9825 28.8559 32.7814 31.2894L6.84683 -0.676427C4.29586 -0.676427 2.17036 -0.502058 0.611328 -0.32922L27.5378 32.679L20.1682 45.7083C63.6757 37.1957 83.3747 28.8567 92.1612 23.9927C94.0035 22.7767 99.388 19.996 99.388 16.0009C99.388 13.5682 97.5458 12.1786 95.2793 10.9626C86.209 6.27226 71.1864 3.14436 56.306 1.58117C40.8592 -0.329984 20.3098 -0.850794 8.97233 -0.677191L33.2063 29.0303C37.8827 28.6823 42.4176 28.1607 46.6692 27.6399L27.254 3.8403Z" fill="#284285"/>
</g>
<defs>
<clipPath id="clip0_78_38">
<rect width="100" height="45" fill="white"/>
</clipPath>
</defs>
</svg>
