<svg width="123" height="61" viewBox="0 0 123 61" fill="none" xmlns="http://www.w3.org/2000/svg">
<g clip-path="url(#clip0_76_28)">
<path d="M14.12 41.44C14.5 41.44 14.66 41.29 14.45 41.06C14.29 40.88 14.02 39.65 14.02 38.35V23.1C14.02 21.8 14.29 20.57 14.45 20.39C14.66 20.16 14.5 20 14.12 20H0.329996C-0.0500036 20 -0.200004 20.16 -3.59118e-06 20.39C0.159996 20.57 0.429996 21.79 0.429996 23.1V38.34C0.429996 39.64 0.159996 40.87 -3.59118e-06 41.05C-0.200004 41.28 -0.0500036 41.43 0.329996 41.43H14.12V41.44Z" fill="#284285"/>
<path d="M34.8699 27.65L39.8899 20.84C40.0899 20.64 39.9899 20.35 39.9899 20.23C39.9899 20.1 39.9899 20 40.0899 20H53.6999C53.8799 20 53.7999 20.13 53.7299 20.23L48.1299 28.06C47.8699 28.39 47.9299 28.7 48.1799 29.03L55.8799 41.2C55.9599 41.3 56.0299 41.43 55.8499 41.43H39.2299C39.1299 41.43 39.1299 41.33 39.1299 41.2C39.1299 41.07 39.3899 39.97 39.1799 39.77L34.8799 33.19V38.33C34.8799 39.63 35.1499 40.86 35.3099 41.04C35.5099 41.27 35.3599 41.42 34.9799 41.42H21.5999C21.2199 41.42 21.0599 41.27 21.2699 41.04C21.4299 40.86 21.6999 39.63 21.6999 38.33V23.1C21.6999 21.8 21.4299 20.57 21.2699 20.39C21.0699 20.16 21.2199 20 21.5999 20H34.9799C35.3599 20 35.5199 20.15 35.3099 20.38C35.1499 20.56 34.8799 21.79 34.8799 23.09L34.8699 27.65Z" fill="#284285"/>
<path d="M73.47 33.48C73.47 33.39 73.5 33.1 73.85 33.1H79.14C79.69 33.1 81.65 33.03 81.82 33.2C81.99 33.37 82.2 33.26 82.2 32.94V27.8C82.2 27.48 81.99 27.37 81.82 27.54C81.65 27.71 79.68 27.64 79.14 27.64H73.85C73.5 27.64 73.47 27.34 73.47 27.26V26.22C73.47 26.13 73.5 25.84 73.85 25.84H81.46C82.75 25.84 83.96 26.11 84.14 26.27C84.37 26.47 84.52 26.32 84.52 25.94V20H60.56C60.18 20 60.03 20.19 60.23 20.42C60.39 20.6 60.66 21.81 60.66 23.1V38.18C60.66 39.47 60.39 40.68 60.23 40.86C60.03 41.09 60.18 41.24 60.56 41.24H84.52V34.93C84.52 34.55 84.37 34.4 84.14 34.6C83.96 34.76 82.75 35.03 81.46 35.03H73.85C73.5 35.03 73.47 34.73 73.47 34.65V33.48Z" fill="#284285"/>
<path d="M122.5 41.2501C122.5 41.2501 114.54 22.3301 114.43 22.0201C114.32 21.7101 114.2 21.1601 114.4 20.6801C114.6 20.1901 114.43 20.0801 114.09 20.0801H95.45C95.11 20.0801 94.94 20.1901 95.14 20.6801C95.34 21.1701 95.23 21.7101 95.11 22.0201C95 22.3301 87.95 41.2501 87.95 41.2501H99.4C99.67 41.2501 99.73 41.1201 99.64 40.9401C99.55 40.7501 99.55 40.3301 99.68 40.0101L100.29 37.9701C100.49 37.4001 100.78 37.3101 101.26 37.3101H106.3C106.79 37.3101 107.07 37.4001 107.27 37.9701L107.88 40.0101C108.01 40.3201 108.01 40.7501 107.92 40.9401C107.83 41.1301 107.89 41.2501 108.16 41.2501H122.5ZM102.19 33.1301C102.01 33.1201 101.99 32.9301 102.04 32.8001L103.28 29.8601C103.33 29.7701 103.36 29.6901 103.47 29.6901C103.58 29.6901 103.61 29.7801 103.66 29.8601L104.9 32.8001C104.95 32.9301 104.93 33.1101 104.75 33.1301H102.19Z" fill="#284285"/>
</g>
<defs>
<clipPath id="clip0_76_28">
<rect width="123" height="61" fill="white"/>
</clipPath>
</defs>
</svg>
