<svg width="31" height="27" viewBox="0 0 31 27" fill="none" xmlns="http://www.w3.org/2000/svg">
<g clip-path="url(#clip0_159_16)">
<path d="M0.983727 1.98419C0.454028 1.98419 0 1.53209 0 0.979535C0 0.452093 0.454028 0 0.983727 0H3.55655C3.58177 0 3.63222 0 3.65744 0C4.5655 0.0251163 5.37266 0.20093 6.0537 0.627907C6.81041 1.10512 7.36534 1.83349 7.66802 2.91349C7.66802 2.9386 7.66802 2.96372 7.69325 2.98884L7.94548 3.99349H30.0163C30.5712 3.99349 31 4.44558 31 4.97302C31 5.07349 30.9748 5.17395 30.9496 5.27442L28.3767 15.5972C28.2758 16.0493 27.8723 16.3507 27.4182 16.3507H11.275C11.6282 17.6567 11.9813 18.36 12.4605 18.6865C13.0407 19.0633 14.0496 19.0884 15.7396 19.0633H15.7648H27.166C27.7209 19.0633 28.1497 19.5154 28.1497 20.0428C28.1497 20.5954 27.6957 21.0223 27.166 21.0223H15.7648C13.6713 21.0474 12.3849 20.9972 11.3507 20.3191C10.2913 19.6158 9.73637 18.4102 9.18145 16.2251L5.80146 3.49116C5.80146 3.46605 5.80146 3.46605 5.77624 3.44093C5.6249 2.88837 5.37266 2.51163 5.01953 2.3107C4.6664 2.08465 4.18714 1.98419 3.63222 1.98419C3.607 1.98419 3.58177 1.98419 3.55655 1.98419H0.983727ZM24.2148 22.1777C25.5517 22.1777 26.6363 23.2577 26.6363 24.5888C26.6363 25.92 25.5517 27 24.2148 27C22.8779 27 21.7933 25.92 21.7933 24.5888C21.7933 23.2577 22.8779 22.1777 24.2148 22.1777ZM13.5956 22.1777C14.9325 22.1777 16.0171 23.2577 16.0171 24.5888C16.0171 25.92 14.9325 27 13.5956 27C12.2587 27 11.1741 25.92 11.1741 24.5888C11.1741 23.2577 12.2587 22.1777 13.5956 22.1777ZM8.50041 5.95256L10.7453 14.3665H26.6615L28.7551 5.95256H8.50041Z" fill="#284285"/>
</g>
<defs>
<clipPath id="clip0_159_16">
<rect width="31" height="27" fill="white"/>
</clipPath>
</defs>
</svg>
