<svg width="82" height="82" viewBox="0 0 82 82" fill="none" xmlns="http://www.w3.org/2000/svg">
<g clip-path="url(#clip0_74_11)">
<path d="M60.065 4.6125C54.325 1.64 47.8675 0 41 0C34.1325 0 27.675 1.64 21.935 4.6125C8.9175 11.48 0 25.215 0 41C0 56.785 8.9175 70.52 22.0375 77.3875C27.675 80.2575 34.1325 82 41 82C47.8675 82 54.2225 80.2575 59.9625 77.285C73.0825 70.52 82 56.785 82 41C82 25.215 73.0825 11.48 60.065 4.6125ZM4.1 41C4.1 27.5725 11.275 15.8875 22.0375 9.3275C27.265 6.15 33.3125 4.305 39.975 4.1L35.3625 37.6175L22.0375 47.97L8.5075 58.5275C5.74 53.3 4.1 47.355 4.1 41ZM60.065 72.57C54.4275 75.9525 47.97 77.9 41 77.9C34.03 77.9 27.47 75.9525 21.935 72.57C16.9125 69.5975 12.8125 65.4975 9.7375 60.5775L21.935 55.555L41 47.765L60.065 55.4525L72.365 60.475C69.29 65.4975 64.985 69.5975 60.065 72.57ZM60.065 47.97L46.8425 37.72L42.1275 4.1C48.585 4.305 54.735 6.15 59.9625 9.3275C70.725 15.785 77.9 27.5725 77.9 41C77.9 47.355 76.3625 53.3 73.4925 58.5275L60.065 47.97Z" fill="#284285"/>
</g>
<defs>
<clipPath id="clip0_74_11">
<rect width="82" height="82" fill="white"/>
</clipPath>
</defs>
</svg>
