<svg width="96" height="80" viewBox="0 0 96 80" fill="none" xmlns="http://www.w3.org/2000/svg">
<g clip-path="url(#clip0_75_16)">
<path d="M55.9438 43.1964C55.8676 43.2153 55.5628 43.2153 55.4295 43.2153H45.6009V45.4918H55.6009C55.6771 45.4918 56.2676 45.4918 56.3819 45.4729C58.42 45.2832 59.3533 43.5948 59.3533 42.115C59.3533 40.5974 58.3819 38.9659 56.5342 38.7951C56.1723 38.7572 55.8676 38.7572 55.7342 38.7572H49.2009C48.9152 38.7572 48.5914 38.7382 48.4771 38.7003C47.9628 38.5675 47.7723 38.1122 47.7723 37.7328C47.7723 37.3913 47.9628 36.936 48.4961 36.7842C48.6485 36.7463 48.8199 36.7273 49.1818 36.7273H58.6104V34.4888H49.0295C48.6295 34.4888 48.3247 34.5077 48.0771 34.5457C46.439 34.7733 45.2961 36.0823 45.2961 37.7517C45.2961 39.1176 46.1533 40.7112 48.039 40.9768C48.3818 41.0147 48.858 41.0147 49.0676 41.0147H55.4295C55.5438 41.0147 55.8295 41.0147 55.8866 41.0337C56.6104 41.1286 56.8581 41.6597 56.8581 42.134C56.8581 42.5893 56.5723 43.0825 55.9438 43.1964Z" fill="#284285"/>
<path d="M37.3151 43.1964C37.2389 43.2153 36.9342 43.2153 36.8199 43.2153H26.9722V45.4918H36.9723C37.0485 45.4918 37.6389 45.4918 37.7532 45.4729C39.7913 45.2832 40.7247 43.5948 40.7247 42.115C40.7247 40.5974 39.7532 38.9659 37.9056 38.7951C37.5437 38.7572 37.2389 38.7572 37.1056 38.7572H30.5723C30.2865 38.7572 29.9627 38.7382 29.8484 38.7003C29.3342 38.5675 29.1437 38.1122 29.1437 37.7328C29.1437 37.3913 29.3342 36.936 29.8675 36.7842C30.0199 36.7463 30.1913 36.7273 30.5532 36.7273H39.9818V34.4888H30.4008C30.0008 34.4888 29.6961 34.5077 29.4484 34.5457C27.8103 34.7733 26.6675 36.0823 26.6675 37.7517C26.6675 39.1176 27.5246 40.7112 29.4103 40.9768C29.7532 41.0147 30.2294 41.0147 30.4389 41.0147H36.8008C36.9151 41.0147 37.2009 41.0147 37.258 41.0337C37.9818 41.1286 38.2294 41.6597 38.2294 42.134C38.2294 42.5893 37.9628 43.0825 37.3151 43.1964Z" fill="#284285"/>
<path d="M21.8484 34.4131H19.3722V45.549H21.8484V34.4131Z" fill="#284285"/>
<path d="M13.9055 45.549V34.4131H11.4293V42.7223L3.1817 34.4131H0.000732422V45.549H2.47693V37.2018L10.7817 45.549H13.9055Z" fill="#284285"/>
<path d="M93.5439 34.4131V42.7223L85.2963 34.4131H82.1153V45.549H84.5915V37.2018L92.8772 45.549H96.0011V34.4131H93.5439Z" fill="#284285"/>
<path d="M69.22 34.4131L62.2486 45.549H65.2581L66.4962 43.557H74.6296L75.8677 45.549H78.8582L71.8867 34.4131H69.22ZM73.3534 41.4513H67.7724L70.5724 36.9741L73.3534 41.4513Z" fill="#284285"/>
<path d="M13.7722 28.0958C18.7627 13.5831 32.5151 3.83211 48.0199 3.83211C63.5247 3.83211 77.2962 13.5831 82.2677 28.0958L82.3058 28.2096H93.2201V26.9006L88.6868 26.3694C85.8867 26.0469 85.2963 24.8138 84.5343 23.2582L84.3439 22.8788C77.7915 8.99217 63.5247 0 48.0199 0C32.4961 0 18.2484 8.99217 11.696 22.9167L11.5055 23.2962C10.7436 24.8518 10.1531 26.0849 7.35311 26.4074L2.81976 26.9386V28.2475H13.715L13.7722 28.0958Z" fill="#284285"/>
<path d="M82.3058 51.7714L82.2677 51.8852C77.2772 66.3979 63.5248 76.1299 48.02 76.1299C32.5151 76.1299 18.7437 66.3789 13.7722 51.8663L13.7341 51.7524H2.83884V53.0614L7.37219 53.5926C10.1722 53.9151 10.7627 55.1482 11.5246 56.7038L11.7151 57.0832C18.2675 71.0078 32.5342 80 48.039 80C63.5438 80 77.8105 71.0078 84.3629 57.1022L84.5534 56.7228C85.3153 55.1672 85.9058 53.9341 88.7058 53.6116L93.2392 53.0804V51.7714H82.3058Z" fill="#284285"/>
</g>
<defs>
<clipPath id="clip0_75_16">
<rect width="96" height="80" fill="white"/>
</clipPath>
</defs>
</svg>
