<svg width="76" height="76" viewBox="0 0 76 76" fill="none" xmlns="http://www.w3.org/2000/svg">
<g clip-path="url(#clip0_78_42)">
<path fill-rule="evenodd" clip-rule="evenodd" d="M37.9858 1.12988C17.6148 1.12988 1.10132 17.6442 1.10132 38.0144C1.10132 58.385 17.6152 74.8989 37.9858 74.8989C58.3556 74.8989 74.8703 58.385 74.8703 38.0144C74.8703 17.6446 58.3556 1.12988 37.9858 1.12988ZM37.9858 71.5919C19.4413 71.5919 4.40836 56.559 4.40836 38.0144C4.40836 19.4706 19.4413 4.43732 37.9858 4.43732C56.5296 4.43732 71.5633 19.4706 71.5633 38.0144C71.5633 56.559 56.5296 71.5919 37.9858 71.5919Z" fill="#284285"/>
<path fill-rule="evenodd" clip-rule="evenodd" d="M30.6344 12.9276C33.0226 12.2304 35.498 11.8776 37.9858 11.8799C40.535 11.8799 42.9994 12.245 45.329 12.9256L37.9858 29.2025L30.6344 12.9276Z" fill="#284285"/>
<path fill-rule="evenodd" clip-rule="evenodd" d="M52.0144 15.9604C54.7664 17.7161 57.1675 19.9688 59.0949 22.6033L47.0426 49.2741L42.3918 38.9327H33.5798L28.9294 49.2737L16.8944 22.5785C18.8182 19.9544 21.2127 17.7104 23.956 15.9608L33.5798 37.3109H42.4217L52.0144 15.9604ZM12.7345 31.2504C12.1462 33.4569 11.8491 35.7308 11.8508 38.0143C11.8508 48.2564 17.7414 57.1216 26.3195 61.4081L12.7345 31.2504Z" fill="#284285"/>
<path fill-rule="evenodd" clip-rule="evenodd" d="M30.7558 63.1363C33.1065 63.8107 35.5403 64.1517 37.9858 64.1493C40.4912 64.1493 42.9138 63.7964 45.2071 63.1391L37.9858 47.1015L30.7558 63.1363ZM49.6509 61.4081C58.2294 57.1216 64.1199 48.2564 64.1199 38.0144C64.1199 35.6958 63.8179 33.4479 63.2521 31.3076L49.6509 61.4081Z" fill="#284285"/>
</g>
<defs>
<clipPath id="clip0_78_42">
<rect width="76" height="76" fill="white"/>
</clipPath>
</defs>
</svg>
